<svg xmlns="http://www.w3.org/2000/svg" width="764" height="764" viewBox="0 0 764 764">
  <g fill="#000" shape-rendering="geometricPrecision">
    <path fill-rule="evenodd" d="
      M 744.67 385.53
      A 365.14 365.14 0 1 1 14.39 385.53
      A 365.14 365.14 0 1 1 744.67 385.53
      M 713.49 385.53
      A 333.96 333.96 0 1 0 45.57 385.53
      A 333.96 333.96 0 1 0 713.49 385.53
    "/>

    <path d="M 198 125 L 217 285 L 167 380 L 287 423 L 361 469 L 314 388 L 260 360 L 245 314 L 332 344 L 358 434 L 396 435 L 418 348 L 509 311 L 495 360 L 440 390 L 397 469 L 467 423 L 586 377 L 536 285 L 554 125 L 435 211 L 389 203 L 315 210 Z"/>
    <path d="M 251 430 L 208 561 L 286 666 L 247 507 L 377 654 L 505 507 L 470 662 L 542 564 L 499 429 L 397 479 L 357 479 Z"/>
    <path d="M 672 310 L 528 455 L 556 562 L 517 619 L 651 493 Z"/>
    <path d="M 486 332 L 437 352 L 425 380 L 472 360 Z"/>
    <path d="M 270 330 L 281 359 L 329 379 L 315 350 Z"/>
  </g>
</svg>
