<svg xmlns="http://www.w3.org/2000/svg" viewBox="0 0 654 708" width="100%" height="100%">
  <g fill="#FFFFFF">
    <path d="M 252 93 L 178.5 102 L 39 0 L 61.5 192 L 1.5 306 L 145.5 357 L 234 412.5 L 177 315 L 112.5 282 L 94.5 226.5 L 199.5 262.5 L 231 370.5 L 252 372 L 273 370.5 L 304.5 262.5 L 409.5 226.5 L 391.5 282 L 327 315 L 270 412.5 L 358.5 357 L 502.5 306 L 442.5 192 L 465 0 L 325.5 102 Z"/>
    <path d="M 252 427.5 L 223.5 427.5 L 64.5 354 L 0 550.5 L 117 708 L 58.5 469.5 L 252 690 L 445.5 469.5 L 387 708 L 504 550.5 L 439.5 354 L 280.5 427.5 Z"/>
  </g>
  <g fill="#4F46E5">
    <path d="M 124.5 246 L 138 280.5 L 195 304.5 L 178.5 270 Z"/>
    <path d="M 379.5 246 L 366 280.5 L 309 304.5 L 325.5 270 Z"/>
    <path d="M 654 219 L 480 393 L 514.5 522 L 468 589.5 L 628.5 438 Z"/>
  </g>
</svg>